<?xml version="1.0" encoding="UTF-8"?> <svg xmlns="http://www.w3.org/2000/svg" width="956" height="271" viewBox="0 0 956 271" fill="none"> <g clip-path="url(#clip0)"> <path d="M303.132 86.6718C293.497 68.8105 276.737 59.8772 252.853 59.8772C235.189 59.8772 221.34 65.4985 211.307 76.7358V62.8879H170.06V210.409H211.307V130.025C211.307 119.592 213.865 111.509 218.984 105.789C224.101 100.069 231.073 97.2092 239.908 97.2092C248.737 97.2092 255.713 99.7212 260.832 104.736C265.951 109.755 268.509 117.38 268.509 127.617V210.409H309.755V130.025C309.755 119.592 312.361 111.509 317.583 105.789C322.8 100.069 329.724 97.2092 338.356 97.2092C347.187 97.2092 354.163 99.7212 359.28 104.736C364.399 109.755 366.957 117.38 366.957 127.617V210.409H408.204V115.575C408.204 97.9145 402.935 84.2159 392.397 74.4785C381.86 64.7452 368.161 59.8772 351.303 59.8772C328.619 59.8772 312.564 68.8105 303.132 86.6718Z" fill="#FF0000"></path> <path d="M40.9042 78.5426V62.8879H-0.342041V270.623H40.9042V194.453C51.9401 207.099 67.2948 213.42 86.9668 213.42C107.44 213.42 124.6 206.195 138.449 191.744C152.299 177.292 159.223 158.928 159.223 136.649C159.223 114.172 152.247 95.7559 138.299 81.4026C124.347 67.0559 107.139 59.8772 86.6668 59.8772C67.3974 59.8772 52.1428 66.0999 40.9042 78.5426V78.5426ZM40.9042 136.649C40.9042 124.408 44.4651 114.52 51.5921 106.993C58.7134 99.4666 67.6988 95.7039 78.5374 95.7039C89.3761 95.7039 98.4081 99.4199 105.633 106.843C112.859 114.271 116.472 124.207 116.472 136.649C116.472 148.893 112.859 158.777 105.633 166.304C98.4081 173.831 89.3761 177.593 78.5374 177.593C67.6988 177.593 58.7134 173.831 51.5921 166.304C44.4651 158.777 40.9042 148.893 40.9042 136.649" fill="#0B4EBA"></path> <path d="M547.513 200.776C560.46 192.345 568.636 180.303 572.051 164.648L535.923 153.809C534.516 160.837 530.904 166.356 525.084 170.368C519.261 174.385 512.44 176.389 504.612 176.389C494.173 176.389 485.541 172.776 478.72 165.551C471.895 158.325 468.484 148.691 468.484 136.649C468.484 124.607 471.895 114.925 478.72 107.596C485.541 100.272 494.173 96.6066 504.612 96.6066C512.44 96.6066 519.261 98.6666 525.084 102.779C530.904 106.895 534.516 112.464 535.923 119.488L572.051 108.348C568.636 92.8946 560.46 80.9519 547.513 72.5213C534.568 64.0919 519.561 59.8773 502.504 59.8773C480.423 59.8773 462.161 67.1026 447.711 81.5533C433.26 96.0053 426.033 114.473 426.033 136.949C426.033 159.633 433.307 178.045 447.861 192.196C462.411 206.345 480.625 213.42 502.504 213.42C519.561 213.42 534.568 209.205 547.513 200.776V200.776ZM620.823 210.409V-0.336088H579.577V210.409H620.823ZM737.035 143.272C737.035 153.711 734.475 161.788 729.357 167.508C724.239 173.228 717.263 176.088 708.433 176.088C699.801 176.088 692.876 173.633 687.66 168.712C682.437 163.796 679.832 156.721 679.832 147.487V62.8879H638.585V154.712C638.585 173.379 644.104 187.829 655.144 198.067C666.18 208.303 679.728 213.42 695.788 213.42C713.251 213.42 726.996 207.804 737.035 196.561V210.409H778.28V62.8879H737.035V143.272ZM837.588 78.5426V-0.336088H796.341V210.409H837.588V194.453C848.624 207.099 863.979 213.42 883.651 213.42C904.124 213.42 921.284 206.195 935.133 191.744C948.983 177.292 955.907 158.928 955.907 136.649C955.907 114.172 948.931 95.7559 934.983 81.4026C921.031 67.0559 903.823 59.8773 883.349 59.8773C864.081 59.8773 848.827 66.0999 837.588 78.5426V78.5426ZM837.588 136.649C837.588 124.408 841.149 114.52 848.276 106.993C855.397 99.4666 864.383 95.7039 875.221 95.7039C886.06 95.7039 895.092 99.4199 902.317 106.843C909.543 114.271 913.156 124.207 913.156 136.649C913.156 148.893 909.543 158.777 902.317 166.304C895.092 173.831 886.06 177.593 875.221 177.593C864.383 177.593 855.397 173.831 848.276 166.304C841.149 158.777 837.588 148.893 837.588 136.649Z" fill="black"></path> <path d="M90.9082 230.969V271.228H955.907V230.969H90.9082" fill="#8EFF3F"></path> </g> <defs> <clipPath id="clip0"> <rect width="956" height="271" fill="white"></rect> </clipPath> </defs> </svg> 