<?xml version="1.0" encoding="UTF-8"?> <svg xmlns="http://www.w3.org/2000/svg" width="28" height="28" viewBox="0 0 28 28" fill="none"> <path d="M23.8995 4.10059L14.0001 10.3206L4.10059 4.10059L10.3206 14.0001L4.10059 23.8995L14.0001 17.6795L23.8995 23.8995L17.6795 14.0001L23.8995 4.10059Z" fill="#386CC8"></path> <path d="M11.529 14.0002L10.4775 12.3267L0 14.0002L10.4775 15.6736L11.529 14.0002Z" fill="#386CC8"></path> <path d="M16.4709 14.0002L17.5224 15.6736L27.9999 14.0002L17.5224 12.3267L16.4709 14.0002Z" fill="#386CC8"></path> <path d="M12.3264 17.5227L13.9999 28.0001L15.6734 17.5227L13.9999 16.4712L12.3264 17.5227Z" fill="#386CC8"></path> <path d="M15.6734 10.4775L13.9999 0L12.3264 10.4775L13.9999 11.529L15.6734 10.4775Z" fill="#386CC8"></path> </svg> 