<?xml version="1.0" encoding="UTF-8"?> <svg xmlns="http://www.w3.org/2000/svg" width="22" height="22" viewBox="0 0 22 22" fill="none"> <circle cx="11" cy="11" r="11" fill="#D1E2FB"></circle> <circle cx="11" cy="11" r="7" fill="#386CC8"></circle> <path d="M10.3651 9.527H11.6391V15H10.3651V9.527ZM10.4171 7.85C10.2611 7.694 10.1831 7.499 10.1831 7.265C10.1831 7.031 10.2611 6.836 10.4171 6.68C10.5731 6.524 10.7681 6.446 11.0021 6.446C11.2361 6.446 11.4311 6.524 11.5871 6.68C11.7431 6.836 11.8211 7.031 11.8211 7.265C11.8211 7.499 11.7431 7.694 11.5871 7.85C11.4311 8.006 11.2361 8.084 11.0021 8.084C10.7681 8.084 10.5731 8.006 10.4171 7.85Z" fill="white"></path> </svg> 