<?xml version="1.0" encoding="UTF-8"?> <svg xmlns="http://www.w3.org/2000/svg" width="16" height="14" viewBox="0 0 16 14" fill="none"> <circle cx="8" cy="7" r="7" fill="#386CC8"></circle> <path d="M7.36508 5.527H8.63908V11H7.36508V5.527ZM7.41708 3.85C7.26108 3.694 7.18308 3.499 7.18308 3.265C7.18308 3.031 7.26108 2.836 7.41708 2.68C7.57308 2.524 7.76808 2.446 8.00208 2.446C8.23608 2.446 8.43108 2.524 8.58708 2.68C8.74308 2.836 8.82108 3.031 8.82108 3.265C8.82108 3.499 8.74308 3.694 8.58708 3.85C8.43108 4.006 8.23608 4.084 8.00208 4.084C7.76808 4.084 7.57308 4.006 7.41708 3.85Z" fill="white"></path> </svg> 